<svg height="102.6" width="102.391" xmlns="http://www.w3.org/2000/svg"><path d="M60.03 32.68a9.679 9.679 0 00-1.63 5.373l-.057-.026a9.616 9.616 0 00.734 3.72 9.672 9.672 0 002.111 3.16 9.772 9.772 0 003.161 2.106 9.9 9.9 0 003.726.72 9.655 9.655 0 005.376-1.64 9.653 9.653 0 004.114-9.933 9.677 9.677 0 00-2.648-4.947 9.635 9.635 0 00-10.544-2.093 9.532 9.532 0 00-4.342 3.56zm18.74-1.787a12.88 12.88 0 012.167 7.16A12.89 12.89 0 0168.064 50.92a12.802 12.802 0 01-7.163-2.16 12.853 12.853 0 01-4.75-5.787 12.85 12.85 0 01-.736-7.44 12.844 12.844 0 013.526-6.6 12.835 12.835 0 0114.047-2.786 12.854 12.854 0 015.783 4.746zM32.13 77.787l-6.302-2.614a10.867 10.867 0 004.168 4.6 10.921 10.921 0 006.001 1.574 10.844 10.844 0 005.884-1.974 10.864 10.864 0 003.855-4.853c.785-1.96.984-4.107.57-6.173a10.867 10.867 0 00-2.898-5.494 10.987 10.987 0 00-5.425-3.013 10.892 10.892 0 00-6.188.453l6.501 2.68a8.062 8.062 0 014.332 4.347 8.04 8.04 0 01-.01 6.147 8.041 8.041 0 01-4.349 4.333 8.027 8.027 0 01-6.138-.013zM51.089 0a51.264 51.264 0 00-34.757 13.587A51.29 51.29 0 000 47.147L27.473 58.52a14.414 14.414 0 018.17-2.533h.81L48.667 38.28v-.253a19.346 19.346 0 0111.986-17.814 19.286 19.286 0 0111.168-1.066c3.747.746 7.186 2.6 9.884 5.306a19.327 19.327 0 014.162 21.067 19.385 19.385 0 01-7.124 8.667 19.353 19.353 0 01-10.738 3.253h-.44L50.184 69.867v.693c.01 3.6-1.324 7.08-3.74 9.76a14.555 14.555 0 01-9.33 4.707 14.55 14.55 0 01-10.074-2.774 14.542 14.542 0 01-5.592-8.84L1.807 65.307a51.324 51.324 0 0014.75 23.88 51.304 51.304 0 0025.111 12.533 51.256 51.256 0 0050.353-19.48 51.238 51.238 0 0010.15-26.16 51.259 51.259 0 00-5.15-27.587A51.344 51.344 0 0078.116 7.747 51.34 51.34 0 0051.123.067L51.088 0" fill="#211d1d"/></svg>